<svg width="200" height="200" viewBox="0 0 200 200" fill="none" xmlns="http://www.w3.org/2000/svg">
<g clip-path="url(#clip0_302_3)">
<path d="M35.4167 1.61203e-05H164.583C169.236 -0.00448106 173.843 0.932018 178.142 2.75592C182.441 4.57981 186.347 7.25531 189.636 10.6293C192.926 14.0032 195.535 18.0094 197.313 22.4186C199.091 26.8277 200.004 31.5533 200 36.3248V163.675C200.004 168.447 199.091 173.172 197.313 177.581C195.535 181.991 192.926 185.997 189.636 189.371C186.347 192.745 182.441 195.42 178.142 197.244C173.843 199.068 169.236 200.004 164.583 200H35.4167C30.7645 200.004 26.1571 199.068 21.8581 197.244C17.5592 195.42 13.6532 192.745 10.3635 189.371C7.07392 185.997 4.46532 181.991 2.68702 177.581C0.908717 173.172 -0.00436903 168.447 1.57173e-05 163.675V36.3248C-0.00436903 31.5533 0.908717 26.8277 2.68702 22.4186C4.46532 18.0094 7.07392 14.0032 10.3635 10.6293C13.6532 7.25531 17.5592 4.57981 21.8581 2.75592C26.1571 0.932018 30.7645 -0.00448106 35.4167 1.61203e-05V1.61203e-05Z" fill="#000B1D"/>
<path d="M80.8337 161C92.3396 161 101.667 151.672 101.667 140.166V119.333H80.8337C69.3278 119.333 60.0004 128.66 60.0004 140.166C60.0004 151.672 69.3278 161 80.8337 161Z" fill="#0ACF83"/>
<path d="M60.0004 98.5003C60.0004 86.9944 69.3278 77.667 80.8337 77.667H101.667V119.334H80.8337C69.3278 119.334 60.0004 110.006 60.0004 98.5003Z" fill="#A259FF"/>
<path d="M60.0004 56.8333C60.0004 45.3274 69.3278 36 80.8337 36H101.667V77.6667H80.8337C69.3278 77.6667 60.0004 68.3393 60.0004 56.8333Z" fill="#F24E1E"/>
<path d="M101.667 36H122.5C134.006 36 143.334 45.3274 143.334 56.8333C143.334 68.3393 134.006 77.6667 122.5 77.6667H101.667V36Z" fill="#FF7262"/>
<path d="M143.334 98.5003C143.334 110.006 134.006 119.334 122.5 119.334C110.994 119.334 101.667 110.006 101.667 98.5003C101.667 86.9944 110.994 77.667 122.5 77.667C134.006 77.667 143.334 86.9944 143.334 98.5003Z" fill="#1ABCFE"/>
</g>
<defs>
<clipPath id="clip0_302_3">
<rect width="200" height="200" fill="white"/>
</clipPath>
</defs>
</svg>
