<svg width="183" height="183" viewBox="0 0 183 183" fill="none" xmlns="http://www.w3.org/2000/svg">
<mask id="mask0_201_437" style="mask-type:luminance" maskUnits="userSpaceOnUse" x="0" y="0" width="188" height="188">
<path d="M0.603027 0.606445H187.923V187.926H0.603027V0.606445Z" fill="white"/>
</mask>
<g mask="url(#mask0_201_437)">
<path d="M184.389 85.926L102.606 4.14339C102.467 4.00379 102.324 3.86727 102.178 3.73486C102.031 3.60245 101.882 3.47312 101.729 3.3479C101.577 3.22267 101.421 3.10156 101.263 2.98352C101.104 2.86599 100.943 2.75257 100.779 2.64274C100.614 2.53291 100.448 2.42719 100.278 2.32608C100.109 2.22447 99.9374 2.12696 99.7634 2.03406C99.5894 1.94066 99.4129 1.85187 99.2343 1.76771C99.0562 1.68302 98.8755 1.60348 98.6933 1.52752C98.5106 1.45208 98.3269 1.38125 98.1411 1.31453C97.9548 1.24782 97.7675 1.18623 97.5786 1.12875C97.3898 1.07127 97.1999 1.01892 97.0079 0.97068C96.8165 0.92295 96.6241 0.87984 96.4306 0.840836C96.2371 0.802344 96.0426 0.768985 95.847 0.739732C95.652 0.710992 95.456 0.686871 95.2594 0.667368C95.0628 0.647866 94.8663 0.633496 94.6692 0.623745C94.4721 0.613994 94.2745 0.609375 94.077 0.609375C93.8799 0.609375 93.6823 0.613994 93.4852 0.623745C93.2881 0.633496 93.0916 0.647866 92.895 0.667368C92.6985 0.686871 92.5024 0.710992 92.3074 0.739732C92.1119 0.768985 91.9173 0.802344 91.7239 0.840836C91.5304 0.87984 91.3379 0.92295 91.1465 0.97068C90.9545 1.01892 90.7647 1.07127 90.5758 1.12875C90.3869 1.18623 90.1996 1.24782 90.0133 1.31453C89.8275 1.38125 89.6433 1.45208 89.4611 1.52752C89.2789 1.60348 89.0982 1.68302 88.9202 1.76771C88.7416 1.85187 88.565 1.94066 88.391 2.03406C88.217 2.12696 88.0451 2.22447 87.8763 2.32608C87.7069 2.42719 87.5401 2.53291 87.3759 2.64274C87.2117 2.75257 87.0505 2.86599 86.8919 2.98352C86.7333 3.10156 86.5778 3.22267 86.4254 3.3479C86.2725 3.47312 86.1231 3.60245 85.9769 3.73486C85.8306 3.86727 85.6879 4.00379 85.5483 4.14339L68.5726 21.1191L90.1144 42.6608C95.1249 40.9046 100.862 42.105 104.854 46.0973C105.09 46.3334 105.317 46.5782 105.537 46.8307C105.756 47.0827 105.966 47.3429 106.166 47.6098C106.367 47.8771 106.558 48.1507 106.74 48.4314C106.922 48.7116 107.094 48.998 107.255 49.2905C107.417 49.5831 107.568 49.8807 107.709 50.1841C107.85 50.4869 107.98 50.7948 108.1 51.1068C108.219 51.4189 108.327 51.735 108.424 52.0547C108.522 52.3745 108.608 52.6968 108.683 53.0227C108.757 53.3486 108.821 53.6765 108.872 54.0065C108.924 54.3365 108.964 54.6685 108.993 55.0011C109.021 55.3342 109.038 55.6678 109.044 56.0019C109.049 56.336 109.042 56.6701 109.024 57.0037C109.006 57.3373 108.977 57.6703 108.936 58.0019C108.894 58.3334 108.841 58.6629 108.777 58.9909C108.712 59.3188 108.637 59.6442 108.55 59.967C108.462 60.2898 108.364 60.609 108.255 60.9247L129.018 81.6879C134.041 79.9552 139.836 81.073 143.846 85.0946C144.012 85.2609 144.174 85.4308 144.332 85.6052C144.49 85.7792 144.643 85.9568 144.793 86.1385C144.942 86.3202 145.087 86.5054 145.226 86.6943C145.366 86.8832 145.502 87.0751 145.633 87.2706C145.763 87.4657 145.889 87.6643 146.01 87.866C146.13 88.0677 146.246 88.2719 146.357 88.4793C146.468 88.6866 146.574 88.896 146.674 89.1085C146.775 89.3209 146.87 89.536 146.96 89.7531C147.05 89.9702 147.135 90.1893 147.214 90.4105C147.293 90.6317 147.367 90.8549 147.435 91.0797C147.504 91.3045 147.566 91.5314 147.623 91.7592C147.68 91.9871 147.732 92.2165 147.778 92.4469C147.824 92.6774 147.864 92.9088 147.899 93.1413C147.933 93.3738 147.962 93.6073 147.985 93.8408C148.008 94.0749 148.025 94.3094 148.037 94.5439C148.048 94.7785 148.055 95.0135 148.055 95.2486C148.055 95.4836 148.048 95.7187 148.037 95.9532C148.026 96.1883 148.008 96.4223 147.985 96.6563C147.962 96.8904 147.933 97.1234 147.899 97.3559C147.865 97.5883 147.825 97.8198 147.778 98.0502C147.733 98.2812 147.681 98.5101 147.624 98.7379C147.567 98.9663 147.504 99.1927 147.436 99.4174C147.368 99.6422 147.294 99.8655 147.215 100.087C147.136 100.308 147.051 100.528 146.961 100.745C146.872 100.962 146.776 101.176 146.676 101.389C146.575 101.601 146.47 101.811 146.359 102.018C146.248 102.226 146.132 102.43 146.011 102.632C145.89 102.833 145.765 103.032 145.634 103.228C145.503 103.423 145.368 103.615 145.228 103.803C145.088 103.992 144.943 104.178 144.795 104.359C144.645 104.541 144.492 104.719 144.334 104.893C144.176 105.067 144.014 105.237 143.848 105.404C143.681 105.569 143.512 105.732 143.337 105.89C143.163 106.047 142.985 106.201 142.803 106.349C142.622 106.499 142.436 106.644 142.247 106.783C142.059 106.923 141.867 107.059 141.671 107.189C141.476 107.319 141.277 107.445 141.076 107.566C140.874 107.687 140.669 107.802 140.462 107.913C140.255 108.024 140.045 108.13 139.832 108.23C139.62 108.33 139.405 108.426 139.188 108.516C138.971 108.606 138.751 108.69 138.53 108.769C138.309 108.848 138.086 108.922 137.861 108.99C137.636 109.058 137.409 109.121 137.182 109.178C136.954 109.235 136.724 109.286 136.494 109.332C136.263 109.378 136.031 109.418 135.799 109.452C135.566 109.487 135.333 109.516 135.099 109.539C134.865 109.561 134.631 109.579 134.396 109.59C134.162 109.601 133.927 109.607 133.692 109.607C133.457 109.607 133.222 109.601 132.987 109.589C132.752 109.578 132.518 109.561 132.284 109.537C132.05 109.514 131.817 109.485 131.585 109.451C131.352 109.416 131.121 109.376 130.89 109.33C130.66 109.284 130.431 109.232 130.202 109.175C129.974 109.118 129.748 109.055 129.523 108.987C129.299 108.919 129.075 108.845 128.854 108.765C128.633 108.686 128.414 108.601 128.197 108.511C127.98 108.421 127.765 108.326 127.552 108.225C127.34 108.125 127.13 108.019 126.923 107.908C126.715 107.797 126.511 107.681 126.31 107.56C126.108 107.44 125.91 107.314 125.714 107.183C125.519 107.052 125.327 106.917 125.138 106.776C124.95 106.636 124.764 106.492 124.583 106.343C124.401 106.193 124.223 106.04 124.049 105.882C123.875 105.724 123.705 105.562 123.539 105.395C119.325 101.181 118.282 94.9761 120.413 89.7833L101.049 70.4192V121.376C102.464 122.076 103.732 122.982 104.854 124.092C105.02 124.259 105.182 124.429 105.34 124.603C105.498 124.777 105.651 124.955 105.8 125.136C105.949 125.318 106.093 125.503 106.234 125.692C106.374 125.88 106.509 126.072 106.639 126.268C106.77 126.463 106.896 126.662 107.016 126.863C107.137 127.064 107.253 127.269 107.364 127.476C107.474 127.683 107.58 127.893 107.68 128.105C107.78 128.318 107.876 128.532 107.966 128.749C108.055 128.966 108.14 129.186 108.219 129.407C108.298 129.628 108.372 129.851 108.44 130.076C108.509 130.301 108.571 130.527 108.628 130.755C108.685 130.983 108.736 131.212 108.783 131.442C108.828 131.673 108.868 131.904 108.903 132.137C108.938 132.369 108.966 132.602 108.989 132.836C109.012 133.07 109.03 133.304 109.041 133.539C109.053 133.773 109.058 134.008 109.058 134.243C109.058 134.478 109.053 134.712 109.041 134.947C109.03 135.182 109.012 135.416 108.989 135.65C108.966 135.884 108.938 136.117 108.903 136.349C108.868 136.582 108.828 136.813 108.783 137.043C108.736 137.274 108.685 137.503 108.628 137.731C108.571 137.958 108.509 138.185 108.44 138.41C108.372 138.634 108.298 138.858 108.219 139.079C108.14 139.3 108.055 139.519 107.966 139.736C107.876 139.953 107.78 140.168 107.68 140.38C107.58 140.593 107.474 140.802 107.364 141.01C107.253 141.217 107.137 141.421 107.016 141.623C106.896 141.824 106.77 142.023 106.639 142.218C106.509 142.413 106.374 142.605 106.234 142.794C106.093 142.983 105.949 143.168 105.8 143.349C105.651 143.531 105.498 143.709 105.34 143.883C105.182 144.057 105.02 144.227 104.854 144.393C104.688 144.559 104.518 144.721 104.344 144.879C104.169 145.037 103.992 145.19 103.81 145.339C103.628 145.488 103.443 145.633 103.255 145.773C103.066 145.913 102.874 146.048 102.678 146.178C102.483 146.309 102.285 146.435 102.084 146.555C101.882 146.676 101.678 146.792 101.47 146.903C101.263 147.013 101.054 147.119 100.841 147.219C100.629 147.32 100.414 147.415 100.197 147.505C99.98 147.595 99.7608 147.679 99.5396 147.758C99.3184 147.838 99.0952 147.911 98.8704 147.98C98.6456 148.048 98.4193 148.11 98.1914 148.167C97.9635 148.224 97.7347 148.276 97.5042 148.322C97.2738 148.368 97.0423 148.408 96.8098 148.442C96.5773 148.477 96.3443 148.506 96.1108 148.529C95.8768 148.552 95.6428 148.569 95.4077 148.581C95.1732 148.592 94.9386 148.597 94.7036 148.597C94.4685 148.597 94.234 148.592 93.999 148.581C93.7644 148.569 93.5304 148.552 93.2964 148.529C93.0628 148.506 92.8298 148.477 92.5974 148.442C92.3649 148.408 92.1334 148.368 91.903 148.322C91.6725 148.276 91.4436 148.224 91.2158 148.167C90.9879 148.11 90.7616 148.048 90.5368 147.98C90.312 147.911 90.0888 147.837 89.8676 147.758C89.6464 147.679 89.4272 147.595 89.2101 147.505C88.993 147.415 88.7785 147.32 88.566 147.219C88.3536 147.119 88.1442 147.013 87.9368 146.903C87.7295 146.792 87.5252 146.676 87.3235 146.555C87.1224 146.435 86.9237 146.309 86.7282 146.178C86.5332 146.048 86.3412 145.913 86.1524 145.773C85.9635 145.633 85.7788 145.488 85.5971 145.339C85.4154 145.19 85.2373 145.037 85.0633 144.879C84.8893 144.721 84.7195 144.559 84.5532 144.393C84.3869 144.227 84.2247 144.057 84.0667 143.883C83.9086 143.709 83.7551 143.532 83.6058 143.35C83.457 143.169 83.3122 142.983 83.1721 142.795C83.032 142.606 82.8965 142.414 82.7657 142.219C82.6353 142.024 82.509 141.825 82.3884 141.624C82.2673 141.422 82.1513 141.218 82.0405 141.011C81.9296 140.804 81.8239 140.594 81.7233 140.381C81.6227 140.169 81.5273 139.954 81.4374 139.737C81.3476 139.52 81.263 139.301 81.1834 139.08C81.1044 138.859 81.0305 138.635 80.9622 138.411C80.894 138.186 80.8313 137.96 80.7739 137.732C80.7169 137.504 80.6656 137.274 80.6194 137.044C80.5737 136.813 80.5332 136.582 80.4988 136.35C80.4644 136.117 80.4357 135.884 80.4126 135.65C80.3895 135.417 80.372 135.182 80.3607 134.947C80.3489 134.713 80.3433 134.478 80.3433 134.243C80.3433 134.008 80.3489 133.773 80.3607 133.538C80.372 133.304 80.3895 133.069 80.4126 132.836C80.4357 132.602 80.4644 132.369 80.4988 132.136C80.5332 131.904 80.5737 131.672 80.6194 131.442C80.6656 131.211 80.7169 130.982 80.7739 130.754C80.8313 130.526 80.894 130.3 80.9622 130.075C81.0305 129.85 81.1044 129.627 81.1834 129.406C81.263 129.185 81.3476 128.965 81.4374 128.748C81.5273 128.531 81.6227 128.317 81.7233 128.104C81.8239 127.892 81.9296 127.682 82.0405 127.475C82.1513 127.268 82.2673 127.063 82.3884 126.862C82.509 126.661 82.6353 126.462 82.7657 126.267C82.8965 126.071 83.032 125.879 83.1721 125.691C83.3122 125.502 83.457 125.317 83.6058 125.136C83.7551 124.954 83.9086 124.777 84.0667 124.603C84.2247 124.429 84.3869 124.258 84.5532 124.092C85.9404 122.711 87.4801 121.663 89.2537 120.961V69.5298C87.5442 68.8272 85.9404 67.791 84.5532 66.3981C84.3027 66.1482 84.062 65.889 83.8311 65.6216C83.6001 65.3537 83.3795 65.0776 83.1685 64.7938C82.9581 64.5095 82.758 64.218 82.5691 63.9193C82.3797 63.6206 82.2021 63.3152 82.0354 63.0032C81.8691 62.6911 81.7141 62.3735 81.5714 62.0496C81.4282 61.7263 81.2973 61.3984 81.1788 61.0648C81.0597 60.7317 80.9535 60.395 80.8601 60.0537C80.7662 59.7129 80.6851 59.3686 80.6168 59.0216C80.5486 58.6747 80.4931 58.3257 80.4505 57.9747C80.4079 57.6236 80.3782 57.2716 80.3617 56.918C80.3453 56.5649 80.3423 56.2113 80.352 55.8582C80.3612 55.5046 80.3843 55.1515 80.4197 54.7999C80.4557 54.4479 80.5044 54.0978 80.566 53.7499C80.6276 53.4014 80.702 53.056 80.7893 52.7132C80.8765 52.3704 80.9766 52.0316 81.089 51.696C81.2009 51.3609 81.3256 51.0304 81.4626 50.7039L60.2134 29.4665L4.13417 85.4867C3.99458 85.6263 3.85857 85.7695 3.72565 85.9157C3.59273 86.062 3.46391 86.2114 3.33869 86.3638C3.21295 86.5167 3.09183 86.6722 2.97379 86.8308C2.85626 86.9894 2.74233 87.1505 2.6325 87.3148C2.52267 87.479 2.41695 87.6458 2.31533 87.8152C2.21372 87.9845 2.11672 88.1564 2.02331 88.3304C1.93042 88.5044 1.84112 88.681 1.75695 88.8596C1.67227 89.0376 1.59221 89.2183 1.51677 89.401C1.44081 89.5832 1.36999 89.7674 1.30327 89.9532C1.23655 90.1395 1.17496 90.3268 1.11748 90.5157C1.06 90.7046 1.00714 90.895 0.959413 91.0864C0.911171 91.2783 0.868061 91.4708 0.829569 91.6643C0.791078 91.8583 0.757206 92.0528 0.727952 92.2483C0.699212 92.4433 0.675091 92.6394 0.655589 92.836C0.636087 93.0325 0.621716 93.2296 0.611965 93.4267C0.602214 93.6237 0.597595 93.8213 0.597595 94.0189C0.597595 94.2165 0.602214 94.4136 0.611965 94.6107C0.621716 94.8083 0.636087 95.0053 0.655589 95.2014C0.675091 95.3979 0.699212 95.594 0.727952 95.7895C0.757206 95.9851 0.791078 96.1796 0.829569 96.373C0.868061 96.5665 0.911171 96.7595 0.959413 96.9509C1.00714 97.1424 1.06 97.3328 1.11748 97.5216C1.17496 97.711 1.23655 97.8983 1.30327 98.0841C1.36999 98.2699 1.44081 98.4541 1.51677 98.6368C1.59221 98.819 1.67227 98.9997 1.75695 99.1783C1.84112 99.3569 1.93042 99.5329 2.02331 99.7069C2.11672 99.8814 2.21372 100.053 2.31533 100.222C2.41695 100.392 2.52267 100.558 2.6325 100.723C2.74233 100.887 2.85626 101.048 2.97379 101.207C3.09183 101.366 3.21295 101.521 3.33869 101.674C3.46391 101.826 3.59273 101.976 3.72565 102.122C3.85857 102.268 3.99458 102.411 4.13417 102.551L85.923 184.328C86.0626 184.467 86.2052 184.603 86.3515 184.736C86.4978 184.869 86.6471 184.997 86.8001 185.123C86.9525 185.248 87.108 185.369 87.2666 185.487C87.4252 185.605 87.5863 185.718 87.7505 185.828C87.9148 185.938 88.0816 186.043 88.2504 186.145C88.4198 186.247 88.5917 186.344 88.7657 186.437C88.9397 186.53 89.1162 186.619 89.2948 186.703C89.4729 186.787 89.6535 186.868 89.8357 186.943C90.0179 187.018 90.2022 187.09 90.3879 187.156C90.5742 187.223 90.7616 187.285 90.9504 187.342C91.1393 187.399 91.3292 187.452 91.5211 187.5C91.7126 187.548 91.905 187.591 92.0985 187.63C92.292 187.668 92.4865 187.702 92.682 187.731C92.8771 187.76 93.0731 187.784 93.2697 187.804C93.4657 187.823 93.6628 187.837 93.8599 187.847C94.0569 187.856 94.2545 187.862 94.4516 187.862C94.6492 187.862 94.8468 187.856 95.0439 187.847C95.2409 187.837 95.4375 187.823 95.6341 187.804C95.8306 187.784 96.0267 187.76 96.2217 187.731C96.4172 187.702 96.6117 187.668 96.8052 187.63C96.9987 187.591 97.1912 187.548 97.3826 187.5C97.5745 187.452 97.7644 187.399 97.9533 187.342C98.1421 187.285 98.3295 187.223 98.5158 187.156C98.7016 187.09 98.8853 187.018 99.068 186.943C99.2502 186.868 99.4308 186.787 99.6089 186.703C99.7875 186.619 99.9641 186.53 100.138 186.437C100.312 186.344 100.484 186.247 100.653 186.145C100.822 186.043 100.989 185.938 101.153 185.828C101.317 185.718 101.479 185.605 101.637 185.487C101.796 185.369 101.951 185.248 102.104 185.123C102.257 184.997 102.406 184.869 102.552 184.736C102.698 184.603 102.841 184.467 102.981 184.328L184.389 103.048C184.528 102.909 184.665 102.766 184.798 102.619C184.93 102.473 185.06 102.324 185.185 102.171C185.31 102.018 185.432 101.863 185.549 101.704C185.667 101.546 185.781 101.385 185.89 101.22C186 101.056 186.106 100.889 186.208 100.72C186.309 100.551 186.407 100.379 186.5 100.205C186.593 100.031 186.682 99.8542 186.766 99.6756C186.851 99.497 186.931 99.3169 187.007 99.1342C187.082 98.952 187.153 98.7677 187.22 98.5819C187.286 98.3956 187.348 98.2083 187.406 98.0194C187.463 97.8306 187.516 97.6402 187.564 97.4487C187.612 97.2568 187.655 97.0643 187.694 96.8709C187.732 96.6769 187.766 96.4824 187.795 96.2868C187.824 96.0918 187.848 95.8958 187.868 95.6992C187.887 95.5026 187.902 95.3056 187.911 95.1085C187.921 94.9114 187.926 94.7138 187.926 94.5162C187.926 94.3186 187.921 94.1216 187.911 93.924C187.902 93.7269 187.887 93.5298 187.868 93.3333C187.848 93.1367 187.824 92.9412 187.795 92.7456C187.766 92.5501 187.732 92.3556 187.694 92.1621C187.655 91.9681 187.612 91.7757 187.564 91.5842C187.516 91.3928 187.463 91.2024 187.406 91.0135C187.348 90.8241 187.286 90.6368 187.22 90.451C187.153 90.2653 187.082 90.081 187.007 89.8983C186.931 89.7161 186.851 89.5355 186.766 89.3569C186.682 89.1783 186.593 89.0022 186.5 88.8277C186.407 88.6538 186.309 88.4818 186.208 88.3125C186.106 88.1431 186 87.9768 185.89 87.8126C185.781 87.6484 185.667 87.4867 185.549 87.3281C185.432 87.1695 185.31 87.014 185.185 86.8616C185.06 86.7092 184.93 86.5593 184.798 86.4131C184.665 86.2668 184.528 86.1241 184.389 85.9845" fill="#F03C2E"/>
</g>
</svg>
