<svg width="20" height="20" viewBox="0 0 20 20" fill="none" xmlns="http://www.w3.org/2000/svg">
<path fill-rule="evenodd" clip-rule="evenodd" d="M10 0C15.523 0 20 4.58992 20 10.2529C20 14.7819 17.138 18.6239 13.167 19.9809C12.66 20.0819 12.48 19.7617 12.48 19.4887C12.48 19.1507 12.492 18.0468 12.492 16.6748C12.492 15.7188 12.172 15.0948 11.813 14.7768C14.04 14.5228 16.38 13.6558 16.38 9.71776C16.38 8.59776 15.992 7.68381 15.35 6.96581C15.454 6.70681 15.797 5.66395 15.252 4.25195C15.252 4.25195 14.414 3.97722 12.505 5.30322C11.706 5.07622 10.85 4.962 10 4.958C9.15 4.962 8.295 5.07622 7.497 5.30322C5.586 3.97722 4.746 4.25195 4.746 4.25195C4.203 5.66395 4.546 6.70681 4.649 6.96581C4.01 7.68381 3.619 8.59776 3.619 9.71776C3.619 13.6458 5.954 14.5261 8.175 14.7851C7.889 15.0411 7.63 15.4927 7.54 16.1557C6.97 16.4177 5.522 16.8712 4.63 15.3042C4.63 15.3042 4.101 14.3191 3.097 14.2471C3.097 14.2471 2.122 14.2341 3.029 14.8701C3.029 14.8701 3.684 15.1851 4.139 16.3701C4.139 16.3701 4.726 18.2001 7.508 17.5801C7.513 18.4371 7.522 19.2447 7.522 19.4887C7.522 19.7597 7.338 20.0769 6.839 19.9819C2.865 18.6269 0 14.7829 0 10.2529C0 4.58992 4.478 0 10 0Z" fill="#16E304"/>
</svg>
