<svg width="187" height="187" viewBox="0 0 187 187" fill="none" xmlns="http://www.w3.org/2000/svg">
<mask id="mask0_201_426" style="mask-type:luminance" maskUnits="userSpaceOnUse" x="4" y="6" width="178" height="175">
<path d="M4.9021 6.3418H181.666V180.462H4.9021V6.3418Z" fill="white"/>
</mask>
<g mask="url(#mask0_201_426)">
<path d="M93.2838 6.37305C44.4752 6.37305 4.9021 45.9461 4.9021 94.7548C4.9021 136.169 33.4202 170.822 71.8661 180.412C71.4537 179.218 71.1884 177.834 71.1884 176.118V161.011C67.6015 161.011 61.5918 161.011 60.0819 161.011C54.0348 161.011 48.6586 158.412 46.0512 153.58C43.1566 148.211 42.6558 139.999 35.482 134.976C33.3536 133.304 34.9738 131.396 37.4268 131.654C41.9562 132.936 45.7126 136.044 49.2475 140.654C52.7682 145.273 54.4254 146.318 61.0025 146.318C64.1915 146.318 68.9643 146.134 73.4567 145.427C75.8727 139.292 80.0489 133.643 85.1525 130.977C55.7216 127.949 41.6763 113.308 41.6763 93.429C41.6763 84.8706 45.322 76.5926 51.5163 69.6176C49.4836 62.6945 46.9276 48.5754 52.297 43.1988C65.5392 43.1988 73.5451 51.7867 75.4676 54.1066C82.0666 51.8455 89.3141 50.5639 96.9295 50.5639C104.56 50.5639 111.837 51.8455 118.451 54.1211C120.351 51.8159 128.364 43.1988 141.636 43.1988C147.028 48.5827 144.442 62.7606 142.387 69.6691C148.545 76.629 152.168 84.8857 152.168 93.429C152.168 113.293 138.145 127.928 108.758 130.969C116.845 135.189 122.744 147.047 122.744 155.981V176.118C122.744 176.883 122.575 177.436 122.486 178.091C156.926 166.02 181.666 133.319 181.666 94.7548C181.666 45.9461 142.092 6.37305 93.2838 6.37305Z" fill="#FFFEFE"/>
</g>
</svg>
