<svg width="92" height="179" viewBox="0 0 92 179" fill="none" xmlns="http://www.w3.org/2000/svg">
<mask id="mask0_201_288" style="mask-type:luminance" maskUnits="userSpaceOnUse" x="0" y="0" width="92" height="179">
<path d="M0.890915 0.179688H91.4336V178.328H0.890915V0.179688Z" fill="white"/>
</mask>
<g mask="url(#mask0_201_288)">
<path d="M60.7334 0.179688C60.7334 0.179688 73.3873 13.0352 48.6922 32.4211C28.8957 48.1343 44.2022 57.1133 48.6922 67.3162C37.0591 56.9088 28.6912 47.7262 34.4059 39.1557C42.7748 26.5038 65.8385 20.3857 60.7349 0.179688H60.7334ZM54.2068 58.7467C60.1252 65.4807 52.574 71.6031 52.574 71.6031C52.574 71.6031 67.6764 63.8488 60.7373 54.2576C54.4104 45.075 49.5123 40.586 76.0438 25.2848C76.0438 25.2848 34.2058 35.6922 54.2058 58.7511L54.2068 58.7467ZM39.101 168.326V148.327C39.101 143.225 36.2438 139.756 29.1007 139.756C25.0188 139.756 21.5495 140.777 18.4878 141.997L19.5085 145.67C21.7497 144.854 24.6107 144.038 27.6724 144.038C31.5503 144.038 33.3867 145.67 33.3867 148.936V151.588H31.3462C21.5495 151.588 17.0595 155.262 17.0595 161.179C17.0595 166.077 20.1207 168.934 25.6314 168.934C29.1012 168.934 31.7543 167.301 34.2038 165.26L34.6119 168.321H39.102L39.101 168.326ZM33.3862 161.796C31.3457 163.632 29.1007 164.653 27.0593 164.653C24.4062 164.653 22.7738 163.02 22.7738 160.163C22.7738 157.306 24.4066 155.266 30.9371 155.266H33.3867V161.791L33.3862 161.796ZM58.2858 168.326H51.1427L42.5717 140.369H48.6946L54.0008 157.51L55.2251 162.611C57.8782 155.265 59.9197 147.715 60.7359 140.369H66.8583C65.2254 149.552 62.3682 159.551 58.2873 168.326H58.2858ZM91.3478 168.326V148.327C91.3478 143.225 88.4907 139.756 81.3476 139.756C77.2656 139.756 73.7964 140.777 70.7347 141.997L71.5513 145.67C74.0009 144.854 76.8576 144.038 79.9192 144.038C83.7971 144.038 85.6335 145.67 85.6335 148.936V151.588H83.5931C73.7968 151.588 69.3068 155.262 69.3068 161.179C69.3068 166.077 72.164 168.934 77.6742 168.934C81.3481 168.934 84.0012 167.301 86.4497 165.26L86.8578 168.321H91.3478V168.326ZM85.6335 161.796C83.5931 163.632 81.3481 164.653 79.3066 164.653C76.6535 164.653 75.0211 163.02 75.0211 160.163C75.0211 157.306 76.654 155.266 83.1845 155.266H85.634V161.791L85.6335 161.796ZM10.734 173.019C9.10114 175.469 6.65208 177.304 3.5904 178.325L0.935837 175.062C2.97631 173.838 5.01776 172.001 5.83395 170.368C6.65014 168.94 6.85467 166.899 6.85467 162.206V130.372H12.9776V161.798C12.9776 168.123 12.3654 170.573 10.7364 173.022L10.734 173.019Z" fill="#F58219"/>
</g>
</svg>
