<svg width="176" height="176" viewBox="0 0 176 176" fill="none" xmlns="http://www.w3.org/2000/svg">
<mask id="mask0_305_32" style="mask-type:luminance" maskUnits="userSpaceOnUse" x="0" y="0" width="176" height="176">
<path d="M0 0H175.178V175.178H0V0Z" fill="white"/>
</mask>
<g mask="url(#mask0_305_32)">
<path d="M0 0H175.178V175.178H0V0Z" fill="#FFD600"/>
</g>
<path d="M114.537 131.124C117.905 136.593 121.564 141.834 129.315 141.834C135.826 141.834 139.242 138.598 139.242 134.122C139.242 128.764 135.709 126.861 128.547 123.742L124.62 122.068C113.286 117.261 105.749 111.237 105.749 98.5119C105.749 86.7845 114.727 77.8603 128.756 77.8603C138.746 77.8603 145.923 81.3199 151.101 90.3806L138.868 98.2005C136.177 93.3927 133.267 91.4999 128.756 91.4999C124.152 91.4999 121.238 94.4047 121.238 98.2005C121.238 102.891 124.157 104.789 130.897 107.694L134.824 109.368C148.181 115.056 155.714 120.866 155.714 133.927C155.714 148 144.6 155.712 129.68 155.712C115.087 155.712 106.8 148.389 102.187 139.323L114.537 131.124ZM58.1591 131.523C60.6213 135.932 64.3636 139.323 69.7452 139.323C74.8935 139.323 77.857 137.289 77.857 129.382V77.8555H94.0754V131.874C94.0754 148.257 84.5721 155.712 70.694 155.712C58.1543 155.712 49.1033 147.216 45.4149 139.323L58.1591 131.523Z" fill="#000001"/>
</svg>
