<svg width="60" height="44" viewBox="0 0 60 44" fill="none" xmlns="http://www.w3.org/2000/svg">
<path d="M42.0062 35.9621C41.394 35.9621 40.7819 36.0213 40.1895 35.9818C35.786 35.6856 31.7971 34.2836 29.1511 30.7489C24.3329 24.2918 24.4711 18.506 29.3683 12.1278C30.0989 11.18 30.6913 10.0347 31.6984 9.36326C31.7774 9.22504 31.8761 9.08681 31.9946 8.96833C32.2118 8.71162 32.4685 8.5339 32.7647 8.43517C32.8832 8.37593 33.0017 8.31669 33.1202 8.29694C33.3374 8.11922 33.5941 8.00074 33.8903 7.92175C34.2457 7.6453 34.6802 7.48733 35.2331 7.48733C35.2726 7.48733 35.312 7.48733 35.3515 7.48733C35.5885 7.40834 35.8452 7.36885 36.1217 7.36885C36.1612 7.36885 36.2204 7.36885 36.2599 7.36885C38.9652 7.19113 41.7297 7.40834 44.356 6.91467C46.5677 6.49999 47.5155 2.76787 45.837 1.74104C44.4548 0.891929 42.7763 0.141553 41.1966 0.04282C35.5885 -0.312621 30.5531 1.56332 26.347 4.9795C19.6332 10.4098 17.2438 17.5976 18.6458 25.9307C19.5739 31.5191 23.2468 35.4289 27.3541 39.0821C30.1977 41.6096 33.9495 41.7676 37.3065 42.9524C38.2741 43.2881 39.3996 43.1499 40.4659 43.2486C40.4659 43.2289 40.4659 43.2091 40.4659 43.1696C41.0781 43.1696 41.6902 43.1894 42.2826 43.1696C44.8695 43.0314 46.7849 41.3727 46.7059 39.3783C46.6072 37.2061 44.8497 35.9226 42.0062 35.9621Z" fill="#05F749"/>
<path d="M50.6157 39.2795C50.3195 38.0157 50.1616 37.0086 49.8259 36.041C48.1869 31.1636 43.8426 28.4385 37.9976 28.5965C34.1075 28.715 32.1131 27.7474 30.5531 24.7854C33.91 24.7854 37.1485 24.8052 40.3869 24.7854C43.2305 24.7657 44.83 23.6006 44.9089 21.5272C44.9682 19.3748 43.27 18.0518 40.3475 18.032C37.1682 18.0123 33.9693 18.032 30.7506 18.032C31.5997 15.6624 33.9693 14.2209 36.9708 14.2012C45.5408 14.1419 48.3646 12.0093 50.517 3.95264C55.2562 5.9668 59.6992 13.4508 59.9757 20.2437C60.3114 28.0634 57.1716 34.3231 50.6157 39.2795Z" fill="#05F749"/>
<path d="M0.00493758 24.7657C0.636832 25.6543 1.50569 25.8715 2.37454 26.069C3.89504 26.4047 5.43528 26.3849 6.93603 25.9702C7.66666 25.7728 8.37754 25.5161 8.93045 24.7459C8.93045 25.6148 8.9107 26.4047 8.93045 27.2143C8.95019 28.3201 9.62158 29.0507 10.5102 28.9915C11.2606 28.9322 11.853 28.2016 11.853 27.2538C11.853 25.7728 11.853 24.3115 11.853 22.8305C11.853 19.0391 11.853 15.2478 11.853 11.4169C12.6626 12.4437 13.7289 12.6609 14.7952 12.8189C16.2565 13.0559 17.698 12.9966 19.1395 12.5227C19.7516 12.3253 20.344 12.0685 20.8377 11.3577C20.8377 11.6934 20.8377 11.9501 20.8377 12.2265C20.8377 17.2224 20.8377 22.2184 20.8377 27.1945C20.8377 33.1383 17.4215 38.2329 12.5836 39.4967C8.19982 40.642 3.61858 38.1737 1.38721 33.474C0.538098 31.677 0.0641759 29.7616 0.0246825 27.6882C-0.0148109 26.7403 0.00493758 25.7728 0.00493758 24.7657Z" fill="#12FD32"/>
<path d="M11.0828 10.1136C11.0433 7.3491 13.3932 5.03874 16.217 5.01899C19.1395 4.99924 21.5683 7.23062 21.5881 9.93592C21.6078 12.7794 19.3172 15.0898 16.4737 15.1293C13.4919 15.1688 11.1026 12.9572 11.0828 10.1136Z" fill="#FEBF46"/>
</svg>
