<svg width="33" height="25" viewBox="0 0 33 25" fill="none" xmlns="http://www.w3.org/2000/svg">
<path fill-rule="evenodd" clip-rule="evenodd" d="M10.6072 2.27273C10.6072 1.01755 11.6626 0 12.9644 0H30.6429C31.9447 0 33 1.01755 33 2.27273C33 3.52791 31.9447 4.54545 30.6429 4.54545H12.9644C11.6626 4.54545 10.6072 3.52791 10.6072 2.27273ZM5.89276 12.5C5.89276 11.2448 6.94809 10.2273 8.24989 10.2273H25.9284C27.2302 10.2273 28.2855 11.2448 28.2855 12.5C28.2855 13.7552 27.2302 14.7727 25.9284 14.7727H8.24989C6.94809 14.7727 5.89276 13.7552 5.89276 12.5ZM2.35713 20.4545C1.05532 20.4545 0 21.472 0 22.7273C0 23.9825 1.05532 25 2.35713 25H21.2142C22.516 25 23.5712 23.9825 23.5712 22.7273C23.5712 21.472 22.516 20.4545 21.2142 20.4545H2.35713Z" fill="#F6F6F6"/>
</svg>
