<svg width="188" height="86" viewBox="0 0 188 86" fill="none" xmlns="http://www.w3.org/2000/svg">
<path d="M25.297 7.38745L27.0046 10.3258C27.3764 10.8558 27.8092 11.3479 28.2956 11.7935C29.7259 13.1022 31.0874 14.4739 32.3062 15.943C35.2014 19.4217 37.1551 23.2846 38.551 27.467C39.3876 30.0212 39.8419 32.6385 39.8764 35.2873C40.0174 43.2036 37.0501 50.0019 31.0498 55.6521C30.0775 56.5477 29.0276 57.3698 27.9102 58.1103C27.3148 58.1103 27.0375 57.6803 26.7931 57.3119C26.3231 56.5952 26.0599 55.8112 25.9205 55.0143C25.7106 54.0568 25.5711 53.0993 25.6416 52.1089V51.6617C25.6072 51.5657 25.0839 7.61249 25.2923 7.38889L25.297 7.38745Z" fill="#599636"/>
<path d="M25.297 7.29281C25.2265 7.16381 25.156 7.26128 25.087 7.32434C25.1215 7.96218 24.8771 8.53694 24.4917 9.08018C24.0734 9.62484 23.5141 10.0376 22.9564 10.4848C19.8512 12.943 17.4104 15.9114 15.4552 19.231C12.8733 23.7002 11.5134 28.4875 11.1312 33.5314C10.9588 35.3517 11.7578 41.7673 12.3876 43.6178C14.0953 48.5341 17.166 52.6506 21.161 56.2254C22.1386 57.0854 23.1851 57.8852 24.2661 58.6506C24.5794 58.6506 24.6155 58.3954 24.6844 58.2034C24.8219 57.7957 24.9266 57.3794 24.9977 56.9578C25.3111 55.3625 25.4865 53.7658 25.6949 52.1705L25.3111 7.29281H25.297Z" fill="#6CAC48"/>
<path d="M27.0093 60.0567C27.0798 59.3229 27.4793 58.7166 27.882 58.1103C27.4637 57.9526 27.1488 57.6315 26.9044 57.2789C26.6944 56.9593 26.5205 56.5623 26.3811 56.2254C25.8923 54.8853 25.7858 53.4806 25.6479 52.1075V51.2761C25.4756 51.4051 25.438 52.4887 25.438 52.6493C25.333 54.117 25.1246 55.5546 24.8113 56.9579C24.7063 57.5312 24.639 58.1074 24.2536 58.6177C24.2536 58.6822 24.2536 58.7467 24.288 58.8413C24.9147 60.5326 25.0902 62.2569 25.1967 64.0127V64.6506C25.1967 65.416 25.1622 65.2569 25.8594 65.5106C26.1383 65.6066 26.4547 65.6396 26.732 65.8302C26.942 65.8302 26.9764 65.6725 26.9764 65.5435L26.8715 64.49V61.5517C26.837 61.0414 26.942 60.5297 27.0125 60.051L27.0093 60.0567Z" fill="#C2BFBF"/>
<path d="M53.5028 46.7071V49.747C53.4991 49.8674 53.5066 49.9878 53.5252 50.107C53.5684 50.4671 53.81 50.6866 54.1651 50.7876C54.4965 50.8674 54.8331 50.9276 55.173 50.9676C55.3697 50.9881 55.4353 51.0672 55.4577 51.2604C55.4801 51.9409 55.4145 52.0214 54.693 51.9805C53.0101 51.9 51.3255 51.8809 49.6426 51.9805H49.4826C48.9579 52.0009 48.9147 51.96 48.9147 51.4799C48.9147 51.3994 48.9371 51.2999 48.9371 51.2194C48.9371 51.073 49.0459 50.9998 49.1995 50.9998C49.5514 50.9603 49.8778 50.8798 50.2073 50.8198C50.6664 50.7203 50.9272 50.4598 50.972 50.0397C51.036 49.5801 51.036 49.1001 51.036 48.639L51.0584 43.2793C51.0656 43.1238 51.0243 42.9697 50.9393 42.8349C50.8543 42.7002 50.7292 42.5903 50.5785 42.5182C50.1828 42.3172 49.7644 42.1562 49.3306 42.0381C49.1995 41.9986 49.0683 41.9796 48.9595 41.9181C48.6395 41.7776 48.6315 41.5186 48.9371 41.3576C49.0459 41.299 49.1771 41.258 49.3082 41.2376C50.635 41.0584 51.9385 40.7568 53.1989 40.3374C53.4612 40.2569 53.5268 40.2789 53.5508 40.5175C53.5732 40.6638 53.5508 40.8395 53.5284 40.977C53.4852 41.2376 53.4852 41.4966 53.4852 41.7381C53.4852 41.8376 53.5076 41.9386 53.6164 41.9986C53.7252 42.0586 53.8356 41.9986 53.9364 41.9401C54.3955 41.6181 54.8546 41.3195 55.3569 41.0619C56.0768 40.7019 56.8447 40.3813 57.6766 40.2818C58.6844 40.1618 59.5563 40.4018 60.3226 41.0019C60.6394 41.2613 60.9185 41.557 61.1529 41.8815C61.372 42.1743 61.3928 42.1816 61.6776 41.9811C62.5095 41.4205 63.3829 40.9214 64.3236 40.5614C65.3075 40.1808 66.3137 40.1223 67.3184 40.4413C68.3454 40.7809 69.0461 41.441 69.462 42.3411C69.814 43.0612 69.9644 43.8047 69.9644 44.5804V49.9402C69.9644 50.3002 70.1243 50.5256 70.5115 50.7013C70.9274 50.8476 71.3865 50.9208 71.8233 51.0013C72.108 51.0598 72.108 51.0598 72.108 51.3233C72.0648 51.9819 71.9993 52.0229 71.2986 51.9819C69.5439 51.8919 67.7852 51.8919 66.0305 51.9819C65.6786 52.0024 65.6786 52.0024 65.6594 51.6819V51.5824C65.637 51.0408 65.637 51.0408 66.2065 50.9237L66.7744 50.7832C66.9668 50.7418 67.1384 50.6423 67.2614 50.5008C67.3845 50.3593 67.4519 50.184 67.4527 50.0031L67.5167 48.5029L67.4735 44.5834C67.4568 44.2334 67.3756 43.8885 67.2336 43.5632C66.6864 42.3426 65.485 41.9035 64.3252 42.0235C63.4501 42.104 62.6854 42.4231 61.964 42.8841C61.8104 42.9836 61.7016 43.1037 61.724 43.3042C61.9208 44.5848 61.788 45.8655 61.812 47.1447V49.9255C61.812 50.4261 62.0311 50.6661 62.5559 50.7862L63.5637 50.9867C63.7173 51.0072 63.8037 51.0672 63.8037 51.2267V51.3731C63.7813 51.9336 63.7397 51.9585 63.1254 51.9526C61.3768 51.8722 59.6267 51.8941 57.9006 51.9526C57.3086 51.9731 57.2607 51.9131 57.2879 51.3672C57.3102 51.0452 57.3518 51.0276 57.6814 50.9676L58.4013 50.8476C59.0412 50.7276 59.2764 50.5081 59.3195 49.8875L59.3835 48.5468L59.3403 44.5263C59.2972 44.0257 59.1804 43.5457 58.8812 43.0861C58.4445 42.3455 57.7614 41.9664 56.8255 41.9254C55.8849 41.8669 55.0546 42.186 54.2659 42.5841C53.7188 42.8768 53.4788 43.2237 53.522 43.8047V46.7246L53.5028 46.7071ZM94.6919 46.8285V49.6489C94.6954 49.8495 94.7098 50.0498 94.7351 50.249C94.7444 50.3818 94.8006 50.5083 94.8952 50.6093C94.9899 50.7104 95.1178 50.7807 95.2598 50.8096C95.637 50.9102 96.0256 50.9706 96.418 50.9896C96.6372 51.0101 96.6804 51.0891 96.7028 51.2501V51.3906C96.6804 52.0902 96.594 52.1707 95.8501 52.1312C94.1863 52.0317 92.5274 52.0507 90.8652 52.1312L90.2253 52.1517C90.0941 52.1517 90.0654 52.0932 90.0286 52.0112C89.9647 51.7342 89.9647 51.4481 90.0286 51.1711C90.051 51.0511 90.1373 51.0247 90.2685 50.9911C90.5885 50.9515 90.8604 50.8915 91.1644 50.8447C91.7115 50.7247 91.9083 50.5227 91.9291 50.0046L91.9931 48.3244V43.4037C91.9931 43.0436 91.8395 42.8241 91.4907 42.6631C91.0972 42.4626 90.6813 42.3236 90.2429 42.183C90.1117 42.1435 89.9806 42.1025 89.8718 42.0425C89.587 41.8625 89.5518 41.6035 89.8286 41.4029C89.9527 41.3096 90.1051 41.2534 90.2653 41.2419C91.6651 41.0414 93.0201 40.7619 94.3319 40.2818C94.4855 40.2233 94.5511 40.2613 94.6167 40.3813C94.6823 40.5014 94.7047 40.6419 94.6807 40.7809L94.6167 41.7205C94.6167 41.8406 94.5527 42.0133 94.6599 42.0601C94.791 42.1406 94.879 41.9606 94.9878 41.9137C95.6333 41.4183 96.3464 41.0016 97.1091 40.6741C97.7874 40.3813 98.4849 40.194 99.2736 40.235C100.739 40.3155 101.788 40.9961 102.465 42.1757C102.817 42.7963 102.967 43.4754 103.033 44.1765L103.097 45.6401L103.119 50.0602C103.142 50.3998 103.273 50.6208 103.644 50.7408C104.029 50.8581 104.424 50.9452 104.825 51.0013C105.177 51.0408 105.196 51.1008 105.218 51.4009V51.5004C105.175 52.181 105.13 52.2 104.386 52.159C102.755 52.079 101.121 52.079 99.4895 52.159C99.2704 52.1795 99.0528 52.159 98.8496 52.1795C98.7185 52.1795 98.6305 52.159 98.6097 52.039C98.5665 51.7785 98.5217 51.5194 98.5873 51.2384C98.6097 51.1184 98.6753 51.0584 98.8272 51.0379L99.8351 50.8915C100.187 50.811 100.382 50.5988 100.427 50.3061L100.47 49.7455L100.448 45.5654C100.448 45.0854 100.425 44.6053 100.317 44.1253C100.054 43.1007 99.2016 42.3689 98.045 42.2665C97.0371 42.1669 96.1252 42.407 95.2902 42.9061C94.8742 43.1461 94.6983 43.4857 94.6983 43.9057V46.9266C94.6983 46.8681 94.6983 46.8681 94.7207 46.8681L94.6919 46.8285Z" fill="#2EF20E"/>
<path d="M158.724 41.1673C158.484 39.7066 157.892 38.407 156.865 37.2668C155.97 36.2596 154.812 35.4753 153.497 34.9865C152.122 34.4669 150.655 34.3059 149.169 34.2664C148.556 34.2459 140.205 34.3659 139.592 34.2664C139.439 34.2459 139.33 34.2869 139.24 34.4069C139.132 34.5533 139.021 34.7069 138.956 34.8665C138.693 35.408 138.693 35.367 139.327 35.4461C139.852 35.5266 140.354 35.5661 140.858 35.7066C141.317 35.8471 141.645 36.0871 141.754 36.5467C141.797 36.7662 141.842 43.8062 141.842 47.0876L141.754 49.4294C141.731 49.6094 141.71 49.7895 141.645 49.949C141.557 50.189 141.405 50.3881 141.143 50.4905C140.854 50.6148 140.543 50.6892 140.224 50.7101C139.632 50.7686 139.546 50.7906 139.349 51.3906L139.285 51.6102C139.242 51.8707 139.263 51.9102 139.548 51.9102L146.084 51.9688L148.644 51.9293L150.415 51.7287C152.426 51.3892 154.219 50.6281 155.748 49.4089C156.622 48.703 157.335 47.8466 157.847 46.8886C158.46 45.7689 158.722 44.5468 158.788 43.3086C158.897 42.609 158.852 41.8889 158.724 41.1688V41.1673ZM155.553 44.0067C155.465 45.2874 155.182 46.5271 154.461 47.6467C153.542 49.1074 152.23 50.1275 150.416 50.4861C149.629 50.6325 148.842 50.7057 148.017 50.6062C147.425 50.5476 146.858 50.4861 146.311 50.3061C145.328 49.9841 144.977 49.4279 144.956 48.5498L144.934 36.4896C144.934 35.7695 145.286 35.6115 145.852 35.5895C146.705 35.531 147.58 35.55 148.433 35.629C149.34 35.7093 150.231 35.9064 151.079 36.2145C151.708 36.4546 152.292 36.7857 152.806 37.1951C153.987 38.1172 154.774 39.2734 155.206 40.6346C155.558 41.7352 155.622 42.8549 155.558 43.9745L155.553 44.0067ZM176.894 45.968C176.894 45.848 176.894 45.7484 176.872 45.6284C176.675 44.5278 176.04 43.6877 175.057 43.0481C174.424 42.628 173.702 42.3485 172.959 42.1479C172.827 42.1084 172.719 42.0674 172.587 42.0484C172.61 41.9489 172.675 41.9284 172.741 41.9079C173.178 41.7074 173.594 41.4879 173.965 41.1878C174.643 40.6682 175.085 40.0272 175.32 39.2471C175.451 38.827 175.451 38.407 175.408 37.9664C175.372 37.451 175.21 36.9496 174.934 36.4994C174.657 36.0492 174.274 35.6616 173.811 35.3656C172.803 34.685 171.624 34.4054 170.401 34.385C168.039 34.3454 165.657 34.385 163.298 34.385C162.619 34.385 161.943 34.4245 161.242 34.3264C161.111 34.3059 160.922 34.2679 160.826 34.4069C160.666 34.6674 160.474 34.9265 160.41 35.2265C160.388 35.367 160.432 35.4461 160.607 35.4666L162.115 35.6671C162.707 35.7476 163.123 36.0476 163.165 36.5277C163.208 36.8594 163.229 37.1932 163.229 37.5273L163.186 41.2668L163.163 48.6669C163.163 49.1059 163.099 49.5275 163.01 49.9666C162.988 50.106 162.923 50.2367 162.822 50.3432C162.722 50.4496 162.589 50.5272 162.442 50.5666C162.005 50.6866 161.589 50.8067 161.13 50.8067C161.007 50.796 160.884 50.8238 160.781 50.8855C160.678 50.9472 160.601 51.0391 160.562 51.1462C160.474 51.3262 160.402 51.5268 160.365 51.7068C160.322 51.9468 160.388 52.0288 160.65 51.9995C160.847 51.979 168.062 52.14 169.417 52.02C170.226 51.9395 171.016 51.84 171.821 51.6204C173.197 51.2209 174.467 50.6398 175.472 49.6592C176.304 48.8586 176.784 47.8985 176.827 46.7788C176.891 46.5183 176.891 46.2592 176.891 45.9782L176.894 45.968ZM166.291 37.7717L166.355 36.172C166.355 35.872 166.486 35.7329 166.814 35.6715C167.339 35.5719 167.863 35.6129 168.388 35.6319C168.913 35.6715 169.415 35.7315 169.94 35.872C170.9 36.1325 171.645 36.6331 172.083 37.4717C172.282 37.853 172.387 38.2699 172.389 38.6924C172.411 39.2529 172.367 39.793 172.127 40.3316C171.756 41.0722 171.167 41.5523 170.313 41.6928C169.458 41.8333 167.033 41.7733 166.662 41.7733C166.334 41.7733 166.31 41.7337 166.31 41.4337V39.55C166.259 38.9643 166.251 38.376 166.288 37.7893L166.291 37.7717ZM173.394 48.5322C173.023 49.4323 172.344 50.0544 171.383 50.391C170.858 50.571 170.333 50.6837 169.783 50.6515C169.105 50.631 168.428 50.6515 167.751 50.5315C166.833 50.3515 166.417 49.5509 166.352 48.9713C166.243 47.9512 166.308 46.9105 166.288 46.1509V43.5106C166.288 43.1886 166.331 43.0905 166.704 43.0905L168.759 43.111L170.159 43.2574C171.143 43.4579 172.039 43.7989 172.739 44.497C173.307 45.0576 173.614 45.7367 173.68 46.4773C173.744 47.1769 173.702 47.8575 173.418 48.5176L173.394 48.5322Z" fill="white"/>
<path d="M117.845 42.5065L118.413 42.587C119.026 42.6075 119.747 42.407 119.965 41.6269C120.085 41.2542 120.085 40.8579 119.965 40.4852C119.834 40.4852 119.768 40.5848 119.703 40.6257C119.375 40.8658 119.003 41.0063 118.61 41.0458C117.823 41.1263 117.036 41.0853 116.271 40.8263L115.199 40.4867C114.452 40.2627 113.665 40.1684 112.88 40.2086C111.765 40.2891 110.715 40.6287 109.731 41.1087C108.682 41.6283 107.939 42.4084 107.588 43.4695C107.391 44.0901 107.368 44.7282 107.456 45.3693C107.676 46.83 108.506 47.8501 109.992 48.3902C110.08 48.4107 110.146 48.4487 110.232 48.4707C110.429 48.5702 110.451 48.6712 110.275 48.8103L109.728 49.1498L108.416 49.8904C108.088 50.0704 108.045 50.2124 108.154 50.53C108.284 50.9036 108.526 51.2363 108.853 51.4901C109.153 51.7256 109.493 51.915 109.859 52.0507C110.099 52.1502 110.099 52.1971 109.882 52.3727L108.634 53.1923C108.218 53.485 107.802 53.7778 107.453 54.1524C107.211 54.3899 107.036 54.6784 106.944 54.9924C106.853 55.3064 106.847 55.6363 106.928 55.9527C107.091 56.647 107.488 57.2768 108.064 57.7529C108.633 58.2345 109.324 58.5782 110.075 58.7526C111.299 59.0746 112.568 59.0921 113.814 58.8726C115.606 58.5725 117.173 57.8481 118.405 56.6128C119.258 55.7931 119.76 54.833 119.805 53.6855C119.853 53.0219 119.642 52.3643 119.209 51.8297C118.777 51.295 118.151 50.918 117.444 50.7656L116.263 50.5651L112.656 50.2724C112.262 50.2519 111.868 50.1919 111.541 50.0119C111.125 49.7718 111.016 49.3123 111.278 49.0122C111.475 48.7927 111.715 48.6522 112.022 48.6317L112.721 48.5731C114.104 48.4445 115.402 47.9034 116.415 47.0334C116.956 46.5752 117.343 45.9852 117.53 45.3327C117.792 44.4721 117.792 43.5764 117.573 42.6982C117.509 42.4787 117.53 42.4582 117.836 42.4977L117.845 42.5065ZM112.486 52.4693C112.617 52.4898 112.748 52.4693 112.88 52.4693C113.798 52.5088 114.738 52.5688 115.634 52.7913C115.927 52.8704 116.212 52.9707 116.487 53.0913C117.362 53.5304 117.69 54.2915 117.58 55.1111C117.448 56.0112 116.901 56.6508 116.049 57.0723C115.481 57.3651 114.846 57.4924 114.19 57.5524C113.95 57.5729 113.731 57.5524 113.491 57.5524C112.726 57.5729 111.982 57.4939 111.261 57.2128C110.758 57.0328 110.342 56.7738 109.971 56.4123C109.206 55.7126 108.851 54.432 109.994 53.3914C110.693 52.8059 111.481 52.3917 112.486 52.4693ZM114.978 46.2284C114.519 47.2881 113.513 47.6086 112.508 47.4681C111.59 47.3481 110.912 46.8885 110.477 46.1275C109.909 45.1073 109.757 44.0491 110.083 42.947C110.323 42.1274 110.87 41.5068 111.832 41.3663C113.056 41.1658 114.231 41.5668 114.849 42.6865C115.169 43.228 115.308 43.8867 115.308 44.8263C115.286 45.2068 115.199 45.7264 114.98 46.227L114.978 46.2284ZM87.4337 44.8673C87.237 43.7871 86.8002 42.8065 85.9908 41.9869C84.7877 40.7663 83.2584 40.2306 81.5306 40.2262C80.0221 40.2057 78.6031 40.6067 77.3329 41.3268C76.0841 42.0105 75.1688 43.1055 74.7748 44.3872C74.4037 45.5479 74.4229 46.729 74.7108 47.9072C75.4755 51.0686 78.1439 52.4268 81.3339 52.2278C82.2745 52.1692 83.1704 51.8882 84.0215 51.5077C85.2901 50.9662 86.2083 50.107 86.8418 48.9669C87.3442 48.0272 87.5617 47.0261 87.5409 45.886L87.4321 44.8658L87.4337 44.8673ZM84.3302 49.3079C84.1739 49.7579 83.8775 50.1565 83.4775 50.4549C83.0775 50.7533 82.5911 50.9386 82.0777 50.9881C81.1179 51.1081 80.2188 50.8886 79.4109 50.3675C78.8277 49.975 78.3555 49.4607 78.0335 48.8673C77.1377 47.1871 76.9841 45.4278 77.4416 43.6276C77.5889 43.0705 77.9076 42.5636 78.3599 42.1669C79.1694 41.4863 80.1084 41.3268 81.1595 41.5273C82.1673 41.7278 82.9304 42.2269 83.5591 42.988C84.1878 43.7491 84.4774 44.6273 84.6518 45.5493C84.7397 46.0089 84.7397 46.489 84.7605 46.789C84.7605 47.7491 84.6726 48.5453 84.3446 49.3093L84.3302 49.3079ZM135.203 45.0283C135.043 43.8676 134.569 42.808 133.672 41.9284C132.491 40.7487 130.96 40.2481 129.256 40.2276C127.791 40.2071 126.436 40.5877 125.19 41.2478C123.79 42.0089 122.828 43.0875 122.457 44.5482C122.014 46.1418 122.2 47.8274 122.982 49.3079C123.702 50.7086 124.927 51.6087 126.546 52.0082C128.338 52.4473 130.045 52.2483 131.706 51.5077C133.149 50.8681 134.176 49.8684 134.766 48.5073C135.118 47.7067 135.246 46.8476 135.268 45.8464C135.291 45.6664 135.246 45.3459 135.204 45.0268L135.203 45.0283ZM132.185 49.0488C131.834 50.129 131.093 50.8286 129.847 50.9896C128.928 51.1096 128.055 50.9091 127.266 50.429C126.588 50.009 126.108 49.4484 125.758 48.7898C125.364 48.0902 125.145 47.3496 125.059 46.59C124.927 45.6503 124.927 44.7312 125.167 43.7901C125.213 43.6045 125.279 43.4236 125.364 43.25C125.977 41.8493 127.332 41.2097 128.928 41.5303C130 41.7498 130.808 42.2913 131.421 43.111C132.013 43.9115 132.296 44.7912 132.429 45.7455C132.493 46.126 132.517 46.5256 132.493 46.8651C132.493 47.6452 132.429 48.3653 132.173 49.0649L132.185 49.0488Z" fill="#2EF20E"/>
</svg>
