<svg width="187" height="187" viewBox="0 0 187 187" fill="none" xmlns="http://www.w3.org/2000/svg">
<path fill-rule="evenodd" clip-rule="evenodd" d="M32.3618 97.7979C31.0505 97.7682 30.0249 97.8965 29.1675 98.2618C28.9207 98.3605 28.5267 98.3605 28.497 98.6763C28.6253 98.8045 28.6447 99.0217 28.7632 99.1995C28.9906 99.5848 29.2763 99.9205 29.6207 100.206L30.676 100.966C31.3168 101.361 32.0363 101.588 32.6674 101.982C33.0322 102.21 33.3874 102.506 33.6536 102.752C33.8309 102.881 33.9495 103.098 34.1759 103.176V103.127C34.0578 102.979 34.0282 102.762 33.9096 102.604L33.417 102.13C32.9336 101.49 32.3652 100.937 31.7113 100.472C31.1885 100.108 30.0351 99.6139 29.818 99.012L29.7883 98.9823C30.1532 98.9527 30.5773 98.8142 30.9223 98.7156C31.4844 98.5674 31.9872 98.5971 32.5687 98.4494L33.3577 98.222V98.0743C33.0619 97.778 32.8452 97.3835 32.5396 97.107C31.701 96.3866 30.7843 95.6758 29.8282 95.0836C29.3151 94.7581 28.6646 94.5409 28.1224 94.2645C27.9252 94.1658 27.5997 94.1163 27.4811 93.9487C27.1858 93.5833 27.0182 93.1096 26.8107 92.6855L25.4601 89.8235C25.1642 89.1817 24.9869 88.5404 24.6221 87.9482C24.2431 87.303 23.8224 86.6865 23.3604 86.0982C22.8979 85.5103 22.3979 84.956 21.8606 84.4357C21.3233 83.9154 20.7534 83.4339 20.151 82.9908C19.5486 82.5478 18.9189 82.1474 18.2626 81.7894C17.6514 81.444 16.9314 81.2958 16.1623 81.1185L14.9298 81.0495C14.6636 80.9309 14.4075 80.6249 14.1709 80.4767C13.2343 79.8845 10.8187 78.6019 10.227 80.2993C9.78343 81.3653 10.8877 82.421 11.2623 82.9641C11.5382 83.3392 11.9031 83.7735 12.1003 84.1976C12.2184 84.4741 12.248 84.7699 12.3666 85.0663L13.2241 87.2671C13.4024 87.6213 13.6064 87.9604 13.8357 88.2834C13.964 88.4612 14.2006 88.5502 14.2496 88.846C14.0228 89.172 14.0033 89.6651 13.8751 90.08C13.2833 91.9354 13.5102 94.245 14.3483 95.6068C14.6145 96.0212 15.334 96.9195 16.0739 96.5741C16.8134 96.2777 16.6457 95.3406 16.8624 94.521C16.912 94.3237 16.8823 94.1955 16.981 94.0575V94.0871L17.6514 95.4489C18.164 96.2583 19.0516 97.0973 19.791 97.6497C20.185 97.9461 20.5008 98.4591 20.9939 98.6369V98.5874H20.9249C20.8263 98.4392 20.6781 98.3702 20.5498 98.2618C20.237 97.9563 19.9513 97.6274 19.6924 97.2746C18.9947 96.3292 18.3801 95.3323 17.8486 94.2844C17.5824 93.7709 17.3555 93.2185 17.1384 92.705C17.0397 92.5077 17.0397 92.2118 16.8721 92.1132C16.6258 92.4781 16.261 92.7841 16.0836 93.2282C15.7678 93.939 15.7387 94.8076 15.6202 95.7151C15.0284 95.6165 14.8511 95.0738 14.6538 94.6099C14.1607 93.4454 14.082 91.5506 14.5062 90.218C14.6242 89.8726 15.1173 88.7868 14.9201 88.4612C14.8215 88.1455 14.496 87.9676 14.3089 87.7208C14.0917 87.4051 13.8653 87.0106 13.7172 86.6651C13.4315 85.7372 13.1356 84.7107 12.7115 83.7929C12.5143 83.3688 12.1693 82.9345 11.8832 82.5395C11.5776 82.0857 11.2326 81.7699 10.9863 81.2564C10.8974 81.0592 10.7891 80.7633 10.9173 80.5656C10.9465 80.4373 11.0155 80.3883 11.1437 80.3484C11.3609 80.1711 11.9624 80.398 12.179 80.4966C12.7902 80.7434 13.2935 80.9703 13.8061 81.3157C14.033 81.4833 14.2793 81.7894 14.5751 81.8783H14.9201C15.4428 81.9968 16.0341 81.9079 16.5272 82.0561C17.3949 82.3325 18.1839 82.7469 18.8937 83.191C19.4354 83.5364 19.9518 83.9163 20.443 84.3303C20.9346 84.7442 21.3966 85.1887 21.8295 85.6634C22.2624 86.1385 22.6622 86.6399 23.029 87.1675C23.3958 87.6956 23.7262 88.2451 24.0206 88.8164C24.2178 89.1914 24.2966 89.5369 24.4841 89.9318L25.5981 92.3498C25.943 93.1198 26.2685 93.9093 26.7616 94.5506C27.008 94.896 27.9942 95.0738 28.4377 95.2614C28.7632 95.4096 29.2758 95.5378 29.5717 95.7253L31.2181 96.8403C31.4844 97.038 32.2039 97.4525 32.3521 97.778L32.3618 97.7979Z" fill="#00678C"/>
<path fill-rule="evenodd" clip-rule="evenodd" d="M15.6003 83.4971C15.3244 83.4971 15.1271 83.5267 14.9299 83.5758V83.6054H14.9595C15.0878 83.8721 15.3244 84.0495 15.4823 84.2768L15.8568 85.0663L15.8865 85.0367C16.1133 84.8686 16.2314 84.612 16.2314 84.2176C16.1328 84.099 16.1133 83.9902 16.0342 83.8721C15.9355 83.704 15.7189 83.6253 15.5906 83.4971H15.6003Z" fill="#00678C"/>
<path fill-rule="evenodd" clip-rule="evenodd" d="M102.8 102.082H116.938C118.595 102.082 120.172 101.747 121.454 101.145C123.593 100.157 124.609 98.8448 124.609 97.1177V93.5055C124.609 92.1238 123.445 90.7912 121.119 89.8934C119.77 89.4139 118.38 89.1773 116.948 89.1826H111.012C109.021 89.1826 108.084 88.5904 107.818 87.268C107.778 87.1198 107.778 86.9721 107.778 86.8137V84.5935C107.778 84.475 107.778 84.3268 107.818 84.1786C108.084 83.1623 108.607 82.8955 110.342 82.6983H124.816V79.4219H111.042C109.05 79.4219 107.986 79.5399 107.059 79.8363C104.16 80.7244 102.888 82.1653 102.888 84.6921V87.5541C102.888 89.7749 105.373 91.6599 109.593 92.0942C110.046 92.1336 110.53 92.1336 111.022 92.1336H116.1C116.297 92.1336 116.475 92.1336 116.623 92.1729C118.161 92.3211 118.841 92.5878 119.285 93.1601C119.581 93.456 119.659 93.7227 119.659 94.0681V96.9301C119.659 97.2658 119.433 97.7196 118.969 98.0947C118.506 98.4697 117.806 98.7364 116.859 98.7855C116.662 98.7855 116.564 98.8253 116.366 98.8253H102.8V102.082ZM155.203 96.3972C155.203 99.7528 157.728 101.628 162.766 102.003L164.196 102.082H176.974V98.8253H164.087C161.129 98.8253 160.143 98.1146 160.143 96.3777V79.4316H155.214V96.4074L155.203 96.3972ZM127.724 96.5454V84.8894C127.724 81.9287 129.825 80.1127 133.936 79.5599L135.247 79.4811H144.575C145.068 79.4811 145.482 79.5205 145.955 79.5599C150.057 80.1224 152.117 81.9287 152.117 84.8894V96.5551C152.117 98.9633 151.25 100.246 149.219 101.095L154.03 105.457H148.351L144.437 101.924L140.493 102.151H135.228C134.36 102.151 133.384 102.053 132.27 101.776C129.154 100.908 127.606 99.2495 127.606 96.5454H127.724ZM133.029 96.2888C133.029 96.4365 133.108 96.5847 133.147 96.7819C133.413 98.1345 134.685 98.8846 136.638 98.8846H141.075L137.013 95.1933H142.691L146.261 98.4304C146.951 98.0553 147.346 97.5224 147.503 96.8514C147.542 96.7032 147.542 96.5157 147.542 96.3578V85.2052C147.542 85.057 147.542 84.9093 147.503 84.7514C147.237 83.4683 145.965 82.7576 144.052 82.7576H136.657C134.488 82.7576 133.049 83.6952 133.049 85.2052L133.029 96.2888Z" fill="#E89E00"/>
<mask id="mask0_201_411" style="mask-type:luminance" maskUnits="userSpaceOnUse" x="37" y="78" width="63" height="31">
<path d="M37.4355 78.9775H99.124V108.596H37.4355V78.9775Z" fill="white"/>
</mask>
<g mask="url(#mask0_201_411)">
<path fill-rule="evenodd" clip-rule="evenodd" d="M37.5392 102.101H42.4296V82.7174L50.061 99.614C50.9287 101.647 52.1709 102.397 54.5767 102.397C56.9825 102.397 58.1461 101.647 59.0531 99.614L66.6447 82.7174V102.101H71.5749V82.7174C71.5749 80.8422 70.8252 79.9341 69.2478 79.4405C65.5307 78.3154 63.0364 79.2928 61.9122 81.8094L54.4188 98.5185L47.2019 81.8094C46.117 79.2928 43.5931 78.3154 39.8367 79.4405C38.2986 79.9341 37.5392 80.8222 37.5392 82.7174V102.101ZM75.6272 86.3296H80.5568V96.9886C80.5175 97.5809 80.7541 98.9426 83.5146 98.9825H94.0842V86.2509H99.0144V103.67C99.0144 107.963 93.7097 108.901 91.2251 108.94H75.7452V105.664H91.2742C94.4296 105.328 94.0546 103.749 94.0546 103.216V101.933H83.6331C78.7821 101.894 75.6665 99.7622 75.6272 97.2947V86.3296Z" fill="#00678C"/>
</g>
</svg>
