<svg width="47" height="32" viewBox="0 0 47 32" fill="none" xmlns="http://www.w3.org/2000/svg">
<path d="M36.8295 0C34.1606 0 31.6011 1.03254 29.7139 2.87046C27.8268 4.70839 26.7666 7.20115 26.7666 9.80037C26.7666 12.3996 27.8268 14.8924 29.7139 16.7303C31.6011 18.5682 34.1606 19.6007 36.8295 19.6007C37.5921 19.6001 38.3517 19.5068 39.0906 19.323C39.1891 19.3037 39.2912 19.3122 39.385 19.3473C39.4788 19.3824 39.5603 19.4428 39.6202 19.5214C39.6831 19.5785 39.7294 19.6508 39.7544 19.7309C39.7794 19.811 39.7823 19.8961 39.7628 19.9777C38.575 22.0662 36.8417 23.812 34.7383 25.0383C32.635 26.2646 30.2363 26.9278 27.7851 26.9609C27.1098 26.9609 26.4621 27.2222 25.9846 27.6873C25.5071 28.1523 25.2388 28.7831 25.2388 29.4408C25.2388 30.0985 25.5071 30.7293 25.9846 31.1943C26.4621 31.6594 27.1098 31.9206 27.7851 31.9206C33.0135 31.7752 37.97 29.6188 41.57 25.9231C45.1699 22.2275 47.1203 17.2935 46.9943 12.2009V9.80037C46.9621 7.1937 45.8777 4.70411 43.9755 2.87008C42.0733 1.03605 39.5062 0.00502608 36.8295 0Z" fill="#16E304"/>
<path d="M11.7333 0C9.06443 0 6.50489 1.03254 4.61773 2.87046C2.73056 4.70839 1.67036 7.20115 1.67036 9.80037C1.67036 12.3996 2.73056 14.8924 4.61773 16.7303C6.50489 18.5682 9.06443 19.6007 11.7333 19.6007C12.4958 19.5989 13.2552 19.5056 13.9944 19.323C14.0929 19.3037 14.195 19.3122 14.2888 19.3473C14.3826 19.3824 14.4641 19.4428 14.524 19.5214C14.5792 19.6004 14.6087 19.6937 14.6087 19.7892C14.6087 19.8847 14.5792 19.9781 14.524 20.057C13.3346 22.1442 11.6009 23.8889 9.49792 25.115C7.39492 26.3411 4.99704 27.0052 2.54629 27.0403C1.87097 27.0403 1.22331 27.3016 0.74579 27.7666C0.268269 28.2317 0 28.8625 0 29.5201C0 30.1778 0.268269 30.8086 0.74579 31.2737C1.22331 31.7387 1.87097 32 2.54629 32C7.77476 31.8546 12.7312 29.6981 16.3312 26.0025C19.9312 22.3068 21.8815 17.3729 21.7555 12.2802V9.80037C21.724 7.21752 20.6592 4.74849 18.7876 2.91831C16.916 1.08812 14.3852 0.0411465 11.7333 0Z" fill="#16E304"/>
</svg>
