<svg width="176" height="165" viewBox="0 0 176 165" fill="none" xmlns="http://www.w3.org/2000/svg">
<mask id="mask0_201_468" style="mask-type:luminance" maskUnits="userSpaceOnUse" x="0" y="0" width="176" height="165">
<path d="M0.773071 0.342773H175.764V164.234H0.773071V0.342773Z" fill="white"/>
</mask>
<g mask="url(#mask0_201_468)">
<path d="M60.6133 66.3429C71.0945 48.1647 83.4389 32.7824 95.1629 22.5761C109.289 10.2808 122.729 5.46527 129.978 9.64533C137.53 14.0017 140.27 28.904 136.228 48.5276C133.176 63.3628 125.876 80.9944 115.927 98.2515C105.726 115.944 94.045 131.532 82.4799 141.642C67.8463 154.437 53.6985 159.067 46.2916 154.793C39.1023 150.649 36.3535 137.059 39.8019 118.893C42.7159 103.543 50.0286 84.7028 60.6089 66.3463L60.6133 66.3429Z" stroke="#00D8FF" stroke-width="7.47646"/>
<path d="M60.6385 98.2966C50.129 80.1388 42.9713 61.7575 39.984 46.5006C36.3884 28.1188 38.9307 14.0648 46.1715 9.87115C53.7169 5.50211 67.9924 10.5703 82.97 23.8722C94.2947 33.9293 105.923 49.0575 115.9 66.2966C126.13 83.972 133.798 101.879 136.781 116.949C140.555 136.02 137.5 150.591 130.099 154.878C122.917 159.036 109.774 154.634 95.7604 142.572C83.9203 132.38 71.2523 116.634 60.6375 98.2932L60.6385 98.2966Z" stroke="#00D8FF" stroke-width="7.47646"/>
</g>
</svg>
