<svg width="180" height="180" viewBox="0 0 180 180" fill="none" xmlns="http://www.w3.org/2000/svg">
<mask id="mask0_201_475" style="mask-type:luminance" maskUnits="userSpaceOnUse" x="0" y="0" width="180" height="180">
<path d="M0.867027 0.867188H179.682V179.683H0.867027V0.867188Z" fill="white"/>
</mask>
<g mask="url(#mask0_201_475)">
<path d="M27.6891 0.867188H152.86C153.299 0.867188 153.738 0.878362 154.176 0.899738C154.614 0.921114 155.052 0.953665 155.489 0.996418C155.926 1.03966 156.361 1.0931 156.796 1.15771C157.23 1.22233 157.663 1.29714 158.093 1.38265C158.523 1.46864 158.951 1.56484 159.377 1.67123C159.803 1.77811 160.226 1.8952 160.646 2.02249C161.066 2.14977 161.483 2.28726 161.896 2.43544C162.309 2.58313 162.719 2.74102 163.125 2.90912C163.53 3.07722 163.931 3.25503 164.328 3.44256C164.725 3.63057 165.117 3.82782 165.504 4.03478C165.891 4.24126 166.273 4.45794 166.649 4.68336C167.026 4.90927 167.397 5.14393 167.762 5.38781C168.127 5.6317 168.485 5.88433 168.838 6.1457C169.191 6.40756 169.537 6.6772 169.876 6.95558C170.215 7.23444 170.548 7.52108 170.873 7.81549C171.198 8.11039 171.516 8.41306 171.826 8.7235C172.137 9.03395 172.439 9.35168 172.734 9.67718C173.029 10.0022 173.315 10.3345 173.594 10.6736C173.873 11.0132 174.142 11.3591 174.404 11.7118C174.666 12.0641 174.918 12.4231 175.162 12.7879C175.406 13.1533 175.641 13.524 175.866 13.9005C176.092 14.277 176.308 14.6589 176.515 15.0456C176.722 15.4328 176.919 15.8248 177.107 16.2218C177.295 16.6187 177.473 17.02 177.641 17.4252C177.809 17.8308 177.967 18.2404 178.114 18.6538C178.262 19.0668 178.4 19.4836 178.527 19.9039C178.655 20.3236 178.772 20.7468 178.879 21.1723C178.985 21.5984 179.081 22.0264 179.167 22.4569C179.253 22.8873 179.328 23.3197 179.392 23.754C179.456 24.1884 179.51 24.6237 179.553 25.0609C179.596 25.4977 179.629 25.9354 179.65 26.3736C179.671 26.8123 179.682 27.251 179.682 27.6897V152.861C179.682 153.299 179.671 153.738 179.65 154.177C179.629 154.615 179.596 155.053 179.553 155.49C179.51 155.927 179.456 156.362 179.392 156.796C179.328 157.231 179.253 157.663 179.167 158.094C179.081 158.524 178.985 158.952 178.879 159.378C178.772 159.804 178.655 160.227 178.527 160.647C178.4 161.067 178.262 161.484 178.114 161.897C177.967 162.31 177.809 162.72 177.641 163.125C177.473 163.531 177.295 163.932 177.107 164.329C176.919 164.726 176.722 165.118 176.515 165.504C176.308 165.892 176.092 166.273 175.866 166.65C175.641 167.027 175.406 167.397 175.162 167.763C174.918 168.127 174.666 168.486 174.404 168.839C174.142 169.191 173.873 169.537 173.594 169.876C173.315 170.216 173.029 170.548 172.734 170.873C172.439 171.199 172.137 171.517 171.826 171.827C171.516 172.137 171.198 172.44 170.873 172.735C170.548 173.029 170.215 173.316 169.876 173.594C169.537 173.873 169.191 174.143 168.838 174.405C168.485 174.666 168.127 174.919 167.762 175.163C167.397 175.407 167.026 175.641 166.649 175.867C166.273 176.093 165.891 176.309 165.504 176.516C165.117 176.723 164.725 176.92 164.328 177.108C163.931 177.295 163.53 177.473 163.125 177.641C162.719 177.809 162.309 177.967 161.896 178.115C161.483 178.263 161.066 178.401 160.646 178.528C160.226 178.655 159.803 178.772 159.377 178.879C158.951 178.986 158.523 179.082 158.093 179.168C157.663 179.253 157.23 179.328 156.796 179.393C156.361 179.457 155.926 179.511 155.489 179.554C155.052 179.597 154.614 179.629 154.176 179.651C153.738 179.672 153.299 179.683 152.86 179.683H27.6891C27.2504 179.683 26.8117 179.672 26.373 179.651C25.9348 179.629 25.497 179.597 25.0603 179.554C24.623 179.511 24.1877 179.457 23.7534 179.393C23.3191 179.328 22.8867 179.253 22.4562 179.168C22.0258 179.082 21.5978 178.986 21.1717 178.879C20.7461 178.772 20.323 178.655 19.9032 178.528C19.483 178.401 19.0661 178.263 18.6532 178.115C18.2397 177.967 17.8302 177.809 17.4245 177.641C17.0193 177.473 16.618 177.295 16.2211 177.108C15.8242 176.92 15.4321 176.723 15.0449 176.516C14.6582 176.309 14.2764 176.093 13.8998 175.867C13.5233 175.641 13.1526 175.407 12.7873 175.163C12.4224 174.919 12.0639 174.666 11.7112 174.405C11.3585 174.143 11.0126 173.873 10.673 173.594C10.3339 173.316 10.0016 173.029 9.67654 172.735C9.35103 172.44 9.0333 172.137 8.72286 171.827C8.41242 171.517 8.10974 171.199 7.81485 170.873C7.52044 170.548 7.2338 170.216 6.95542 169.876C6.67655 169.537 6.40692 169.191 6.14506 168.839C5.88368 168.486 5.63105 168.127 5.38717 167.763C5.14328 167.397 4.90863 167.027 4.68272 166.65C4.45729 166.273 4.2411 165.892 4.03414 165.504C3.82717 165.118 3.62993 164.726 3.44191 164.329C3.25438 163.932 3.07657 163.531 2.90847 163.125C2.74038 162.72 2.58248 162.31 2.43479 161.897C2.28662 161.484 2.14913 161.067 2.02184 160.647C1.89455 160.227 1.77747 159.804 1.67059 159.378C1.56419 158.952 1.468 158.524 1.382 158.094C1.2965 157.663 1.22168 157.231 1.15707 156.796C1.09245 156.362 1.03901 155.927 0.995772 155.49C0.953019 155.053 0.920468 154.615 0.899092 154.177C0.877716 153.738 0.867027 153.299 0.867027 152.861V27.6897C0.867027 27.251 0.877716 26.8123 0.899092 26.3736C0.920468 25.9354 0.953019 25.4977 0.995772 25.0609C1.03901 24.6237 1.09245 24.1884 1.15707 23.754C1.22168 23.3197 1.2965 22.8873 1.382 22.4569C1.468 22.0264 1.56419 21.5984 1.67059 21.1723C1.77747 20.7468 1.89455 20.3236 2.02184 19.9039C2.14913 19.4836 2.28662 19.0668 2.43479 18.6538C2.58248 18.2404 2.74038 17.8308 2.90847 17.4252C3.07657 17.02 3.25438 16.6187 3.44191 16.2218C3.62993 15.8248 3.82717 15.4328 4.03414 15.0456C4.2411 14.6589 4.45729 14.277 4.68272 13.9005C4.90863 13.524 5.14328 13.1533 5.38717 12.7879C5.63105 12.4231 5.88368 12.0641 6.14506 11.7118C6.40692 11.3591 6.67655 11.0132 6.95542 10.6736C7.2338 10.3345 7.52044 10.0022 7.81485 9.67718C8.10974 9.35168 8.41242 9.03395 8.72286 8.7235C9.0333 8.41306 9.35103 8.11039 9.67654 7.81549C10.0016 7.52108 10.3339 7.23444 10.673 6.95558C11.0126 6.6772 11.3585 6.40756 11.7112 6.1457C12.0639 5.88433 12.4224 5.6317 12.7873 5.38781C13.1526 5.14393 13.5233 4.90927 13.8998 4.68336C14.2764 4.45794 14.6582 4.24126 15.0449 4.03478C15.4321 3.82782 15.8242 3.63057 16.2211 3.44256C16.618 3.25503 17.0193 3.07722 17.4245 2.90912C17.8302 2.74102 18.2397 2.58313 18.6532 2.43544C19.0661 2.28726 19.483 2.14977 19.9032 2.02249C20.323 1.8952 20.7461 1.77811 21.1717 1.67123C21.5978 1.56484 22.0258 1.46864 22.4562 1.38265C22.8867 1.29714 23.3191 1.22233 23.7534 1.15771C24.1877 1.0931 24.623 1.03966 25.0603 0.996418C25.497 0.953665 25.9348 0.921114 26.373 0.899738C26.8117 0.878362 27.2504 0.867188 27.6891 0.867188Z" fill="#21759B"/>
<path d="M156.632 90.2742C156.632 91.3605 156.606 92.4459 156.552 93.5302C156.499 94.6151 156.419 95.698 156.313 96.7785C156.206 97.8594 156.073 98.937 155.914 100.011C155.755 101.085 155.569 102.155 155.357 103.22C155.145 104.285 154.907 105.345 154.643 106.398C154.38 107.452 154.09 108.498 153.775 109.537C153.46 110.576 153.119 111.607 152.753 112.63C152.387 113.652 151.997 114.665 151.581 115.668C151.165 116.672 150.726 117.664 150.261 118.646C149.797 119.627 149.309 120.597 148.797 121.555C148.285 122.513 147.75 123.458 147.191 124.389C146.633 125.32 146.053 126.238 145.449 127.141C144.846 128.043 144.221 128.931 143.574 129.804C142.927 130.676 142.259 131.532 141.57 132.371C140.881 133.211 140.172 134.033 139.442 134.837C138.713 135.642 137.965 136.428 137.197 137.196C136.429 137.964 135.642 138.713 134.838 139.442C134.033 140.171 133.211 140.88 132.372 141.569C131.532 142.258 130.676 142.926 129.804 143.573C128.932 144.22 128.044 144.845 127.141 145.449C126.238 146.052 125.321 146.633 124.39 147.191C123.458 147.75 122.513 148.284 121.556 148.797C120.598 149.308 119.628 149.796 118.647 150.261C117.665 150.725 116.672 151.165 115.669 151.581C114.666 151.996 113.653 152.387 112.63 152.753C111.607 153.118 110.577 153.459 109.537 153.774C108.498 154.09 107.452 154.379 106.398 154.643C105.345 154.907 104.286 155.145 103.221 155.357C102.156 155.568 101.086 155.754 100.012 155.913C98.9375 156.073 97.86 156.206 96.779 156.312C95.6985 156.419 94.6156 156.498 93.5308 156.552C92.4464 156.605 91.3611 156.632 90.2748 156.632C89.1889 156.632 88.1036 156.605 87.0192 156.552C85.9344 156.498 84.8515 156.419 83.771 156.312C82.69 156.206 81.6124 156.073 80.5383 155.913C79.4641 155.754 78.3943 155.568 77.3294 155.357C76.264 155.145 75.2049 154.907 74.1516 154.643C73.0978 154.379 72.0519 154.09 71.0127 153.774C69.973 153.459 68.9426 153.118 67.9199 152.753C66.8972 152.387 65.8843 151.996 64.881 151.581C63.8778 151.165 62.8853 150.725 61.9034 150.261C60.922 149.796 59.9523 149.308 58.9943 148.797C58.0367 148.284 57.0918 147.75 56.1604 147.191C55.2291 146.633 54.3119 146.052 53.4087 145.449C52.506 144.845 51.6184 144.22 50.7459 143.573C49.8738 142.926 49.0178 142.258 48.1783 141.569C47.3388 140.88 46.5168 140.171 45.7122 139.442C44.9072 138.713 44.1212 137.964 43.3531 137.196C42.5855 136.428 41.8368 135.642 41.1076 134.837C40.3783 134.033 39.669 133.211 38.9801 132.371C38.2912 131.532 37.6232 130.676 36.9761 129.804C36.3295 128.931 35.7042 128.043 35.1008 127.141C34.4974 126.238 33.9168 125.32 33.3586 124.389C32.7999 123.458 32.265 122.513 31.753 121.555C31.2409 120.597 30.7531 119.627 30.2887 118.646C29.8242 117.664 29.3845 116.672 28.9687 115.668C28.5533 114.665 28.1627 113.652 27.7969 112.63C27.4306 111.607 27.09 110.576 26.7752 109.537C26.4599 108.498 26.1703 107.452 25.9065 106.398C25.6422 105.345 25.4047 104.285 25.1928 103.22C24.981 102.155 24.7954 101.085 24.6361 100.011C24.4767 98.937 24.3436 97.8594 24.2372 96.7785C24.1308 95.698 24.0506 94.6151 23.9977 93.5302C23.9443 92.4459 23.9175 91.3605 23.9175 90.2742C23.9175 89.1884 23.9443 88.103 23.9977 87.0182C24.0506 85.9338 24.1308 84.8509 24.2372 83.7704C24.3436 82.6895 24.4767 81.6119 24.6361 80.5378C24.7954 79.4636 24.981 78.3938 25.1928 77.3289C25.4047 76.2634 25.6422 75.2043 25.9065 74.1511C26.1703 73.0973 26.4599 72.0513 26.7752 71.0121C27.09 69.9725 27.4306 68.942 27.7969 67.9194C28.1627 66.8967 28.5533 65.8837 28.9687 64.8805C29.3845 63.8773 29.8242 62.8847 30.2887 61.9029C30.7531 60.9215 31.2409 59.9518 31.753 58.9937C32.265 58.0362 32.7999 57.0912 33.3586 56.1599C33.9168 55.2286 34.4974 54.3113 35.1008 53.4082C35.7042 52.5055 36.3295 51.6179 36.9761 50.7454C37.6232 49.8733 38.2912 49.0173 38.9801 48.1778C39.669 47.3382 40.3783 46.5162 41.1076 45.7117C41.8368 44.9067 42.5855 44.1206 43.3531 43.3525C44.1212 42.5849 44.9072 41.8363 45.7122 41.107C46.5168 40.3778 47.3388 39.6685 48.1783 38.9796C49.0178 38.2907 49.8738 37.6227 50.7459 36.9755C51.6184 36.3289 52.506 35.7037 53.4087 35.1003C54.3119 34.4969 55.2291 33.9163 56.1604 33.3581C57.0918 32.7994 58.0367 32.2645 58.9943 31.7524C59.9523 31.2404 60.922 30.7526 61.9034 30.2881C62.8853 29.8237 63.8778 29.384 64.881 28.9681C65.8843 28.5528 66.8972 28.1622 67.9199 27.7963C68.9426 27.43 69.973 27.0894 71.0127 26.7746C72.0519 26.4593 73.0978 26.1698 74.1516 25.906C75.2049 25.6417 76.264 25.4041 77.3294 25.1923C78.3943 24.9805 79.4641 24.7949 80.5383 24.6355C81.6124 24.4762 82.69 24.3431 83.771 24.2367C84.8515 24.1303 85.9344 24.0501 87.0192 23.9972C88.1036 23.9437 89.1889 23.917 90.2748 23.917C91.3611 23.917 92.4464 23.9437 93.5308 23.9972C94.6156 24.0501 95.6985 24.1303 96.779 24.2367C97.86 24.3431 98.9375 24.4762 100.012 24.6355C101.086 24.7949 102.156 24.9805 103.221 25.1923C104.286 25.4041 105.345 25.6417 106.398 25.906C107.452 26.1698 108.498 26.4593 109.537 26.7746C110.577 27.0894 111.607 27.43 112.63 27.7963C113.653 28.1622 114.666 28.5528 115.669 28.9681C116.672 29.384 117.665 29.8237 118.647 30.2881C119.628 30.7526 120.598 31.2404 121.556 31.7524C122.513 32.2645 123.458 32.7994 124.39 33.3581C125.321 33.9163 126.238 34.4969 127.141 35.1003C128.044 35.7037 128.932 36.3289 129.804 36.9755C130.676 37.6227 131.532 38.2907 132.372 38.9796C133.211 39.6685 134.033 40.3778 134.838 41.107C135.642 41.8363 136.429 42.5849 137.197 43.3525C137.965 44.1206 138.713 44.9067 139.442 45.7117C140.172 46.5162 140.881 47.3382 141.57 48.1778C142.259 49.0173 142.927 49.8733 143.574 50.7454C144.221 51.6179 144.846 52.5055 145.449 53.4082C146.053 54.3113 146.633 55.2286 147.191 56.1599C147.75 57.0912 148.285 58.0362 148.797 58.9937C149.309 59.9518 149.797 60.9215 150.261 61.9029C150.726 62.8847 151.165 63.8773 151.581 64.8805C151.997 65.8837 152.387 66.8967 152.753 67.9194C153.119 68.942 153.46 69.9725 153.775 71.0121C154.09 72.0513 154.38 73.0973 154.643 74.1511C154.907 75.2043 155.145 76.2634 155.357 77.3289C155.569 78.3938 155.755 79.4636 155.914 80.5378C156.073 81.6119 156.206 82.6895 156.313 83.7704C156.419 84.8509 156.499 85.9338 156.552 87.0187C156.606 88.1031 156.632 89.1884 156.632 90.2742Z" stroke="white" stroke-width="6.98498"/>
</g>
</svg>
