<svg width="200" height="200" viewBox="0 0 200 200" fill="none" xmlns="http://www.w3.org/2000/svg">
<g clip-path="url(#clip0_303_21)">
<path d="M35.4167 1.61203e-05H164.583C169.236 -0.00448106 173.843 0.932018 178.142 2.75592C182.441 4.57981 186.347 7.25531 189.636 10.6293C192.926 14.0032 195.535 18.0094 197.313 22.4186C199.091 26.8277 200.004 31.5533 200 36.3248V163.675C200.004 168.447 199.091 173.172 197.313 177.581C195.535 181.991 192.926 185.997 189.636 189.371C186.347 192.745 182.441 195.42 178.142 197.244C173.843 199.068 169.236 200.004 164.583 200H35.4167C30.7645 200.004 26.1571 199.068 21.8581 197.244C17.5592 195.42 13.6532 192.745 10.3635 189.371C7.07392 185.997 4.46532 181.991 2.68702 177.581C0.908717 173.172 -0.00436903 168.447 1.57173e-05 163.675V36.3248C-0.00436903 31.5533 0.908717 26.8277 2.68702 22.4186C4.46532 18.0094 7.07392 14.0032 10.3635 10.6293C13.6532 7.25531 17.5592 4.57981 21.8581 2.75592C26.1571 0.932018 30.7645 -0.00448106 35.4167 1.61203e-05V1.61203e-05Z" fill="#470137"/>
<path d="M104.032 60.507L79.0316 101.757L105.698 145.507C105.874 145.809 105.933 146.164 105.865 146.507C105.782 146.84 105.448 146.59 104.948 146.674H85.8649C84.5316 146.674 83.6149 146.59 83.0316 145.757C81.2816 142.257 79.4482 138.84 77.6982 135.34C75.9482 131.84 74.0316 128.424 72.0316 124.84C70.0316 121.257 68.0316 117.674 66.0316 114.007H65.8649C64.1149 117.59 62.1982 121.174 60.2816 124.757C58.3649 128.34 56.4482 131.924 54.6149 135.424C52.7816 138.924 50.7816 142.507 48.8649 145.924C48.5316 146.757 47.8649 146.84 46.9482 146.84H28.6149C28.2816 146.84 28.0316 147.007 28.0316 146.59C27.9944 146.434 27.99 146.272 28.0187 146.115C28.0474 145.957 28.1085 145.807 28.1982 145.674L54.1149 103.174L28.8649 60.4237C28.6149 60.0903 28.5316 59.757 28.6982 59.5903C28.7998 59.4715 28.9287 59.3791 29.0739 59.3211C29.219 59.263 29.3761 59.241 29.5316 59.257H48.4482C48.8424 59.2656 49.2341 59.3215 49.6149 59.4237C49.9488 59.6033 50.2345 59.8605 50.4482 60.1737C52.0316 63.757 53.8649 67.3403 55.7816 70.9237C57.6982 74.507 59.6982 78.007 61.7816 81.507C63.8649 85.007 65.6149 88.507 67.3649 92.0903H67.5316C69.2816 88.4237 71.1149 84.8403 72.9482 81.3403C74.7816 77.8403 76.6982 74.3403 78.6149 70.8403C80.5316 67.3403 82.3649 63.757 84.1982 60.3403C84.2614 60.0123 84.4385 59.7171 84.6982 59.507C85.0282 59.3249 85.4121 59.2659 85.7816 59.3403H103.365C103.463 59.3182 103.565 59.3158 103.665 59.3332C103.764 59.3505 103.859 59.3874 103.944 59.4416C104.03 59.4958 104.103 59.5663 104.161 59.649C104.219 59.7317 104.26 59.8251 104.282 59.9237C104.365 60.007 104.198 60.3403 104.032 60.507V60.507Z" fill="#FF61F6"/>
<path d="M142.532 148.423C136.354 148.525 130.233 147.244 124.615 144.673C119.388 142.229 115.007 138.284 112.032 133.34C108.948 128.257 107.448 121.923 107.448 114.34C107.364 108.173 108.947 102.098 112.032 96.7568C115.194 91.3284 119.774 86.8632 125.282 83.8401C131.115 80.5901 138.115 79.0068 146.365 79.0068C146.949 79.0002 147.534 79.028 148.115 79.0901C148.865 79.1734 149.698 79.1734 150.698 79.2568V52.9234C150.698 52.3401 150.948 52.0068 151.532 52.0068H168.448C168.635 51.9815 168.825 52.0275 168.979 52.1356C169.133 52.2437 169.241 52.4059 169.282 52.5901V132.09C169.282 133.59 169.365 135.257 169.448 137.09C169.532 138.923 169.698 140.507 169.782 141.923C169.799 142.205 169.729 142.485 169.579 142.724C169.43 142.963 169.209 143.149 168.948 143.257C164.583 145.091 160.027 146.433 155.365 147.257C151.13 148.021 146.835 148.411 142.532 148.423V148.423ZM150.698 131.757V95.0901C149.956 94.911 149.205 94.772 148.448 94.6734C147.532 94.5901 146.615 94.5068 145.698 94.5068C142.432 94.47 139.204 95.2127 136.282 96.6734C133.434 98.0924 130.996 100.215 129.198 102.84C127.365 105.507 126.448 109.09 126.448 113.423C126.376 116.348 126.856 119.26 127.865 122.007C128.671 124.228 129.951 126.247 131.615 127.923C133.222 129.457 135.161 130.597 137.282 131.257C139.514 131.988 141.849 132.354 144.198 132.34C145.448 132.34 146.615 132.257 147.698 132.173C148.716 132.246 149.738 132.104 150.698 131.757V131.757Z" fill="#FF61F6"/>
</g>
<defs>
<clipPath id="clip0_303_21">
<rect width="200" height="200" fill="white"/>
</clipPath>
</defs>
</svg>
